<svg xmlns="http://www.w3.org/2000/svg" viewBox="0 0 120 120">
  <defs>
    <path id="arcTop_global_lounge" d="M 18 60 A 42 42 0 0 1 102 60" fill="none"/>
    <path id="arcBot_global_lounge" d="M 14 60 A 46 46 0 0 0 106 60" fill="none"/>
  </defs>
  <!-- 紙地 -->
  <circle cx="60" cy="60" r="57" fill="#fbf6e9"/>
  <!-- 版ズレ（アクセント色のオフセットリング） -->
  <circle cx="61.5" cy="61.2" r="55" fill="none" stroke="#d63a2f" stroke-width="4" opacity="0.5"/>
  <!-- 外リング -->
  <circle cx="60" cy="60" r="55" fill="none" stroke="#161616" stroke-width="4.5"/>
  <!-- 内点線リング -->
  <circle cx="60" cy="60" r="48" fill="none" stroke="#161616" stroke-width="1.6" stroke-dasharray="4 3"/>
  <!-- 上弧テキスト -->
  <text font-family="Arial, Helvetica, sans-serif" font-weight="900" font-size="10.5" letter-spacing="1.6" fill="#161616">
    <textPath href="#arcTop_global_lounge" startOffset="50%" text-anchor="middle">BRIDGE LOUNGE</textPath>
  </text>
  <!-- 下弧テキスト -->
  <text font-family="Arial, Helvetica, sans-serif" font-weight="900" font-size="7.5" letter-spacing="2" fill="#161616">
    <textPath href="#arcBot_global_lounge" startOffset="50%" text-anchor="middle">EST. 2016 ・ GO ABROAD</textPath>
  </text>
  <!-- 左右の星 -->
  <text x="17" y="64" font-size="8" fill="#d63a2f" font-family="Arial">★</text>
  <text x="95" y="64" font-size="8" fill="#d63a2f" font-family="Arial">★</text>
  <!-- アイコン -->
  
  <g transform="translate(1.4,1)" opacity="0.4"><path d="M 28 70 Q 60 36 92 70" fill="none" stroke="#1d3557" stroke-width="4.5"/></g>
  
  <path d="M 28 70 Q 60 36 92 70" fill="none" stroke="#d63a2f" stroke-width="4.5"/>
  <line x1="28" y1="70" x2="92" y2="70" stroke="#161616" stroke-width="3.4"/>
  <line x1="42" y1="70" x2="42" y2="58.5" stroke="#161616" stroke-width="2.2"/>
  <line x1="60" y1="70" x2="60" y2="52.5" stroke="#161616" stroke-width="2.2"/>
  <line x1="78" y1="70" x2="78" y2="58.5" stroke="#161616" stroke-width="2.2"/>
  <path d="M 30 80 q 5 -4 10 0 q 5 4 10 0 q 5 -4 10 0 q 5 4 10 0 q 5 -4 10 0 q 5 4 10 0" fill="none" stroke="#1d3557" stroke-width="2.4"/>


</svg>